<?xml version="1.0" encoding="utf-8" standalone="no"?>
<!DOCTYPE svg PUBLIC "-//W3C//DTD SVG 1.1//EN"
  "http://www.w3.org/Graphics/SVG/1.1/DTD/svg11.dtd">
<svg xmlns:xlink="http://www.w3.org/1999/xlink" width="501.408pt" height="345.733203pt" viewBox="0 0 501.408 345.733203" xmlns="http://www.w3.org/2000/svg" version="1.1">
 <metadata>
  <rdf:RDF xmlns:dc="http://purl.org/dc/elements/1.1/" xmlns:cc="http://creativecommons.org/ns#" xmlns:rdf="http://www.w3.org/1999/02/22-rdf-syntax-ns#">
   <cc:Work>
    <dc:type rdf:resource="http://purl.org/dc/dcmitype/StillImage"/>
    <dc:date>2026-09-18T01:57:47.730482</dc:date>
    <dc:format>image/svg+xml</dc:format>
    <dc:creator>
     <cc:Agent>
      <dc:title>Matplotlib v3.10.8, https://matplotlib.org/</dc:title>
     </cc:Agent>
    </dc:creator>
   </cc:Work>
  </rdf:RDF>
 </metadata>
 <defs>
  <style type="text/css">*{stroke-linejoin: round; stroke-linecap: butt}</style>
 </defs>
 <g id="figure_1">
  <g id="patch_1">
   <path d="M 0 345.733203 
L 501.408 345.733203 
L 501.408 0 
L 0 0 
z
" style="fill: #ffffff"/>
  </g>
  <g id="axes_1">
   <g id="patch_2">
    <path d="M 70.128 301.526953 
L 494.208 301.526953 
L 494.208 24.326953 
L 70.128 24.326953 
z
" style="fill: #ffffff"/>
   </g>
   <g id="patch_3">
    <path d="M 70.128 301.526953 
L 494.208 301.526953 
L 494.208 24.326953 
L 70.128 24.326953 
L 70.128 301.526953 
z
" clip-path="url(#pecc391d7e9)" style="fill: none; stroke: #b9b4ac; stroke-width: 1.4; stroke-linejoin: miter"/>
   </g>
   <g id="PathCollection_1">
    <defs>
     <path id="m76cbd6a075" d="M 0 0 
C 0 0 0 0 0 0 
C 0 0 0 0 0 0 
C 0 0 0 0 0 0 
C 0 0 0 0 0 0 
C 0 0 0 0 0 0 
C 0 0 0 0 0 0 
C 0 0 0 0 0 0 
C 0 0 0 0 0 0 
z
" style="stroke: #6e8ca0"/>
    </defs>
    <g clip-path="url(#pecc391d7e9)">
     <use xlink:href="#m76cbd6a075" x="197.352" y="218.366953" style="fill: #6e8ca0; stroke: #6e8ca0"/>
    </g>
   </g>
   <g id="matplotlib.axis_1">
    <g id="xtick_1">
     <g id="line2d_1">
      <defs>
       <path id="mfbec19c7c1" d="M 0 0 
L 0 3.5 
" style="stroke: #6b6b6b; stroke-width: 0.8"/>
      </defs>
      <g>
       <use xlink:href="#mfbec19c7c1" x="176.148" y="301.526953" style="fill: #6b6b6b; stroke: #6b6b6b; stroke-width: 0.8"/>
      </g>
     </g>
     <g id="text_1">
      <text style="font-size: 10px; font-family: 'Times New Roman', 'SimSun'; text-anchor: middle; fill: #6b6b6b" x="176.148" y="315.528516" transform="rotate(-0 176.148 315.528516)">新闭包：对</text>
     </g>
    </g>
    <g id="xtick_2">
     <g id="line2d_2">
      <g>
       <use xlink:href="#mfbec19c7c1" x="388.188" y="301.526953" style="fill: #6b6b6b; stroke: #6b6b6b; stroke-width: 0.8"/>
      </g>
     </g>
     <g id="text_2">
      <text style="font-size: 10px; font-family: 'Times New Roman', 'SimSun'; text-anchor: middle; fill: #6b6b6b" x="388.188" y="315.528516" transform="rotate(-0 388.188 315.528516)">新闭包：错</text>
     </g>
    </g>
   </g>
   <g id="matplotlib.axis_2">
    <g id="ytick_1">
     <g id="line2d_3">
      <defs>
       <path id="mb119705386" d="M 0 0 
L -3.5 0 
" style="stroke: #6b6b6b; stroke-width: 0.8"/>
      </defs>
      <g>
       <use xlink:href="#mb119705386" x="70.128" y="232.226953" style="fill: #6b6b6b; stroke: #6b6b6b; stroke-width: 0.8"/>
      </g>
     </g>
     <g id="text_3">
      <text style="font-size: 10px; font-family: 'Times New Roman', 'SimSun'; text-anchor: end; fill: #6b6b6b" x="63.128" y="235.708203" transform="rotate(-0 63.128 235.708203)">旧闭包：错</text>
     </g>
    </g>
    <g id="ytick_2">
     <g id="line2d_4">
      <g>
       <use xlink:href="#mb119705386" x="70.128" y="93.626953" style="fill: #6b6b6b; stroke: #6b6b6b; stroke-width: 0.8"/>
      </g>
     </g>
     <g id="text_4">
      <text style="font-size: 10px; font-family: 'Times New Roman', 'SimSun'; text-anchor: end; fill: #6b6b6b" x="63.128" y="97.108203" transform="rotate(-0 63.128 97.108203)">旧闭包：对</text>
     </g>
    </g>
   </g>
   <g id="patch_4">
    <path d="M 70.128 301.526953 
L 70.128 24.326953 
" style="fill: none; stroke: #b9b4ac; stroke-width: 0.8; stroke-linejoin: miter; stroke-linecap: square"/>
   </g>
   <g id="patch_5">
    <path d="M 494.208 301.526953 
L 494.208 24.326953 
" style="fill: none; stroke: #b9b4ac; stroke-width: 0.8; stroke-linejoin: miter; stroke-linecap: square"/>
   </g>
   <g id="patch_6">
    <path d="M 70.128 301.526953 
L 494.208 301.526953 
" style="fill: none; stroke: #b9b4ac; stroke-width: 0.8; stroke-linejoin: miter; stroke-linecap: square"/>
   </g>
   <g id="patch_7">
    <path d="M 70.128 24.326953 
L 494.208 24.326953 
" style="fill: none; stroke: #b9b4ac; stroke-width: 0.8; stroke-linejoin: miter; stroke-linecap: square"/>
   </g>
   <g id="text_5">
    <text style="font-size: 11px; font-family: 'Times New Roman', 'SimSun'; text-anchor: middle; fill: #6b6b6b" x="176.148" y="93.626953" transform="rotate(-0 176.148 93.626953)">双对 0</text>
   </g>
   <g id="text_6">
    <text style="font-size: 12px; font-family: 'Times New Roman', 'SimSun'; fill: #a68080" transform="translate(374.521125 81.061078)">old对</text>
    <text style="font-size: 12px; font-family: 'Times New Roman', 'SimSun'; fill: #a68080" transform="translate(367.691438 93.626953)">new错 3</text>
   </g>
   <g id="text_7">
    <text style="font-weight: 700; font-size: 14px; font-family: 'Times New Roman', 'SimSun'; fill: #3e5c6e" transform="translate(159.810656 217.797766)">old错</text>
    <text style="font-weight: 700; font-size: 14px; font-family: 'Times New Roman', 'SimSun'; fill: #3e5c6e" transform="translate(148.342687 232.226953)">new对 25</text>
   </g>
   <g id="text_8">
    <text style="font-size: 11px; font-family: 'Times New Roman', 'SimSun'; text-anchor: middle; fill: #6b6b6b" x="388.188" y="232.226953" transform="rotate(-0 388.188 232.226953)">双错 0</text>
   </g>
   <g id="text_9">
    <text style="font-weight: 700; font-size: 13.5px; font-family: 'Times New Roman', 'SimSun'; text-anchor: middle; fill: #2b2b2b" x="282.168" y="18.326953" transform="rotate(-0 282.168 18.326953)">McNemar 配对翻转（n=28 actionable，精确 p=2.74e-05）</text>
   </g>
  </g>
  <g id="text_10">
   <text style="font-size: 8px; font-family: 'Times New Roman', 'SimSun'; text-anchor: start; fill: #6b6b6b" x="7.2" y="336.806953" transform="rotate(-0 7.2 336.806953)">数据源：FINAL_SCOPE_REPORT.md §5（25:3 净翻转）</text>
  </g>
 </g>
 <defs>
  <clipPath id="pecc391d7e9">
   <rect x="70.128" y="24.326953" width="424.08" height="277.2"/>
  </clipPath>
 </defs>
</svg>
