<?xml version="1.0" encoding="utf-8" standalone="no"?>
<!DOCTYPE svg PUBLIC "-//W3C//DTD SVG 1.1//EN"
  "http://www.w3.org/Graphics/SVG/1.1/DTD/svg11.dtd">
<svg xmlns:xlink="http://www.w3.org/1999/xlink" width="565.488pt" height="346.668315pt" viewBox="0 0 565.488 346.668315" xmlns="http://www.w3.org/2000/svg" version="1.1">
 <metadata>
  <rdf:RDF xmlns:dc="http://purl.org/dc/elements/1.1/" xmlns:cc="http://creativecommons.org/ns#" xmlns:rdf="http://www.w3.org/1999/02/22-rdf-syntax-ns#">
   <cc:Work>
    <dc:type rdf:resource="http://purl.org/dc/dcmitype/StillImage"/>
    <dc:date>2026-09-18T01:49:46.265075</dc:date>
    <dc:format>image/svg+xml</dc:format>
    <dc:creator>
     <cc:Agent>
      <dc:title>Matplotlib v3.10.8, https://matplotlib.org/</dc:title>
     </cc:Agent>
    </dc:creator>
   </cc:Work>
  </rdf:RDF>
 </metadata>
 <defs>
  <style type="text/css">*{stroke-linejoin: round; stroke-linecap: butt}</style>
 </defs>
 <g id="figure_1">
  <g id="patch_1">
   <path d="M 0 346.668315 
L 565.488 346.668315 
L 565.488 0 
L 0 0 
z
" style="fill: #ffffff"/>
  </g>
  <g id="axes_1">
   <g id="patch_2">
    <path d="M 78.408 288.922312 
L 558.288 288.922312 
L 558.288 22.810312 
L 78.408 22.810312 
z
" style="fill: #ffffff"/>
   </g>
   <g id="matplotlib.axis_1">
    <g id="xtick_1">
     <g id="line2d_1">
      <defs>
       <path id="m47ad52c34f" d="M 0 0 
L 0 3.5 
" style="stroke: #6b6b6b; stroke-width: 0.8"/>
      </defs>
      <g>
       <use xlink:href="#m47ad52c34f" x="120.050479" y="288.922312" style="fill: #6b6b6b; stroke: #6b6b6b; stroke-width: 0.8"/>
      </g>
     </g>
     <g id="text_1">
      <text style="font-size: 10px; font-family: 'Times New Roman', 'SimSun'; text-anchor: middle; fill: #6b6b6b" x="120.050479" y="302.962937" transform="rotate(-0 120.050479 302.962937)">建党前</text>
     </g>
    </g>
    <g id="xtick_2">
     <g id="line2d_2">
      <g>
       <use xlink:href="#m47ad52c34f" x="186.149653" y="288.922312" style="fill: #6b6b6b; stroke: #6b6b6b; stroke-width: 0.8"/>
      </g>
     </g>
     <g id="text_2">
      <text style="font-size: 10px; font-family: 'Times New Roman', 'SimSun'; text-anchor: middle; fill: #6b6b6b" x="186.149653" y="303.041062" transform="rotate(-0 186.149653 303.041062)">建党与大革命</text>
     </g>
    </g>
    <g id="xtick_3">
     <g id="line2d_3">
      <g>
       <use xlink:href="#m47ad52c34f" x="252.248826" y="288.922312" style="fill: #6b6b6b; stroke: #6b6b6b; stroke-width: 0.8"/>
      </g>
     </g>
     <g id="text_3">
      <text style="font-size: 10px; font-family: 'Times New Roman', 'SimSun'; text-anchor: middle; fill: #6b6b6b" x="252.248826" y="303.041062" transform="rotate(-0 252.248826 303.041062)">土地革命</text>
     </g>
    </g>
    <g id="xtick_4">
     <g id="line2d_4">
      <g>
       <use xlink:href="#m47ad52c34f" x="318.348" y="288.922312" style="fill: #6b6b6b; stroke: #6b6b6b; stroke-width: 0.8"/>
      </g>
     </g>
     <g id="text_4">
      <text style="font-size: 10px; font-family: 'Times New Roman', 'SimSun'; text-anchor: middle; fill: #6b6b6b" x="318.348" y="303.041062" transform="rotate(-0 318.348 303.041062)">抗日战争</text>
     </g>
    </g>
    <g id="xtick_5">
     <g id="line2d_5">
      <g>
       <use xlink:href="#m47ad52c34f" x="384.447174" y="288.922312" style="fill: #6b6b6b; stroke: #6b6b6b; stroke-width: 0.8"/>
      </g>
     </g>
     <g id="text_5">
      <text style="font-size: 10px; font-family: 'Times New Roman', 'SimSun'; text-anchor: middle; fill: #6b6b6b" x="384.447174" y="303.041062" transform="rotate(-0 384.447174 303.041062)">解放战争</text>
     </g>
    </g>
    <g id="xtick_6">
     <g id="line2d_6">
      <g>
       <use xlink:href="#m47ad52c34f" x="450.546347" y="288.922312" style="fill: #6b6b6b; stroke: #6b6b6b; stroke-width: 0.8"/>
      </g>
     </g>
     <g id="text_6">
      <text style="font-size: 10px; font-family: 'Times New Roman', 'SimSun'; text-anchor: middle; fill: #6b6b6b" x="450.546347" y="303.041062" transform="rotate(-0 450.546347 303.041062)">革命和建设</text>
     </g>
    </g>
    <g id="xtick_7">
     <g id="line2d_7">
      <g>
       <use xlink:href="#m47ad52c34f" x="516.645521" y="288.922312" style="fill: #6b6b6b; stroke: #6b6b6b; stroke-width: 0.8"/>
      </g>
     </g>
     <g id="text_7">
      <text style="font-size: 10px; font-family: 'Times New Roman', 'SimSun'; text-anchor: middle; fill: #6b6b6b" x="516.645521" y="303.002" transform="rotate(-0 516.645521 303.002)">改革开放</text>
     </g>
    </g>
   </g>
   <g id="matplotlib.axis_2">
    <g id="ytick_1">
     <g id="line2d_8">
      <defs>
       <path id="m3ea01d7d29" d="M 0 0 
L -3.5 0 
" style="stroke: #6b6b6b; stroke-width: 0.8"/>
      </defs>
      <g>
       <use xlink:href="#m3ea01d7d29" x="78.408" y="288.922312" style="fill: #6b6b6b; stroke: #6b6b6b; stroke-width: 0.8"/>
      </g>
     </g>
     <g id="text_8">
      <text style="font-size: 10px; font-family: 'Times New Roman', 'SimSun'; text-anchor: end; fill: #6b6b6b" x="71.408" y="292.394187" transform="rotate(-0 71.408 292.394187)">0.0</text>
     </g>
    </g>
    <g id="ytick_2">
     <g id="line2d_9">
      <g>
       <use xlink:href="#m3ea01d7d29" x="78.408" y="235.699912" style="fill: #6b6b6b; stroke: #6b6b6b; stroke-width: 0.8"/>
      </g>
     </g>
     <g id="text_9">
      <text style="font-size: 10px; font-family: 'Times New Roman', 'SimSun'; text-anchor: end; fill: #6b6b6b" x="71.408" y="239.171787" transform="rotate(-0 71.408 239.171787)">0.2</text>
     </g>
    </g>
    <g id="ytick_3">
     <g id="line2d_10">
      <g>
       <use xlink:href="#m3ea01d7d29" x="78.408" y="182.477512" style="fill: #6b6b6b; stroke: #6b6b6b; stroke-width: 0.8"/>
      </g>
     </g>
     <g id="text_10">
      <text style="font-size: 10px; font-family: 'Times New Roman', 'SimSun'; text-anchor: end; fill: #6b6b6b" x="71.408" y="185.949387" transform="rotate(-0 71.408 185.949387)">0.4</text>
     </g>
    </g>
    <g id="ytick_4">
     <g id="line2d_11">
      <g>
       <use xlink:href="#m3ea01d7d29" x="78.408" y="129.255112" style="fill: #6b6b6b; stroke: #6b6b6b; stroke-width: 0.8"/>
      </g>
     </g>
     <g id="text_11">
      <text style="font-size: 10px; font-family: 'Times New Roman', 'SimSun'; text-anchor: end; fill: #6b6b6b" x="71.408" y="132.726987" transform="rotate(-0 71.408 132.726987)">0.6</text>
     </g>
    </g>
    <g id="ytick_5">
     <g id="line2d_12">
      <g>
       <use xlink:href="#m3ea01d7d29" x="78.408" y="76.032712" style="fill: #6b6b6b; stroke: #6b6b6b; stroke-width: 0.8"/>
      </g>
     </g>
     <g id="text_12">
      <text style="font-size: 10px; font-family: 'Times New Roman', 'SimSun'; text-anchor: end; fill: #6b6b6b" x="71.408" y="79.504587" transform="rotate(-0 71.408 79.504587)">0.8</text>
     </g>
    </g>
    <g id="ytick_6">
     <g id="line2d_13">
      <g>
       <use xlink:href="#m3ea01d7d29" x="78.408" y="22.810312" style="fill: #6b6b6b; stroke: #6b6b6b; stroke-width: 0.8"/>
      </g>
     </g>
     <g id="text_13">
      <text style="font-size: 10px; font-family: 'Times New Roman', 'SimSun'; text-anchor: end; fill: #6b6b6b" x="71.408" y="26.282187" transform="rotate(-0 71.408 26.282187)">1.0</text>
     </g>
    </g>
    <g id="text_14">
     <text style="font-size: 11px; font-family: 'Times New Roman', 'SimSun'; text-anchor: middle; fill: #2b2b2b" x="52.555031" y="155.866312" transform="rotate(-90 52.555031 155.866312)">占比</text>
    </g>
   </g>
   <g id="patch_3">
    <path d="M 78.408 288.922312 
L 558.288 288.922312 
" style="fill: none; stroke: #b9b4ac; stroke-width: 0.8; stroke-linejoin: miter; stroke-linecap: square"/>
   </g>
   <g id="patch_4">
    <path d="M 100.220727 288.922312 
L 139.880231 288.922312 
L 139.880231 243.040933 
L 100.220727 243.040933 
z
" clip-path="url(#pd249b6ce80)" style="fill: #e4e9dc"/>
   </g>
   <g id="patch_5">
    <path d="M 166.319901 288.922312 
L 205.979405 288.922312 
L 205.979405 91.295018 
L 166.319901 91.295018 
z
" clip-path="url(#pd249b6ce80)" style="fill: #e4e9dc"/>
   </g>
   <g id="patch_6">
    <path d="M 232.419074 288.922312 
L 272.078579 288.922312 
L 272.078579 203.589486 
L 232.419074 203.589486 
z
" clip-path="url(#pd249b6ce80)" style="fill: #e4e9dc"/>
   </g>
   <g id="patch_7">
    <path d="M 298.518248 288.922312 
L 338.177752 288.922312 
L 338.177752 94.290235 
L 298.518248 94.290235 
z
" clip-path="url(#pd249b6ce80)" style="fill: #e4e9dc"/>
   </g>
   <g id="patch_8">
    <path d="M 364.617421 288.922312 
L 404.276926 288.922312 
L 404.276926 63.259336 
L 364.617421 63.259336 
z
" clip-path="url(#pd249b6ce80)" style="fill: #e4e9dc"/>
   </g>
   <g id="patch_9">
    <path d="M 430.716595 288.922312 
L 470.376099 288.922312 
L 470.376099 208.01304 
L 430.716595 208.01304 
z
" clip-path="url(#pd249b6ce80)" style="fill: #e4e9dc"/>
   </g>
   <g id="patch_10">
    <path d="M 496.815769 288.922312 
L 536.475273 288.922312 
L 536.475273 22.810312 
L 496.815769 22.810312 
z
" clip-path="url(#pd249b6ce80)" style="fill: #e4e9dc"/>
   </g>
   <g id="patch_11">
    <path d="M 100.220727 243.040933 
L 139.880231 243.040933 
L 139.880231 243.040933 
L 100.220727 243.040933 
z
" clip-path="url(#pd249b6ce80)" style="fill: #b4c4a9"/>
   </g>
   <g id="patch_12">
    <path d="M 166.319901 91.295018 
L 205.979405 91.295018 
L 205.979405 91.295018 
L 166.319901 91.295018 
z
" clip-path="url(#pd249b6ce80)" style="fill: #b4c4a9"/>
   </g>
   <g id="patch_13">
    <path d="M 232.419074 203.589486 
L 272.078579 203.589486 
L 272.078579 203.589486 
L 232.419074 203.589486 
z
" clip-path="url(#pd249b6ce80)" style="fill: #b4c4a9"/>
   </g>
   <g id="patch_14">
    <path d="M 298.518248 94.290235 
L 338.177752 94.290235 
L 338.177752 94.290235 
L 298.518248 94.290235 
z
" clip-path="url(#pd249b6ce80)" style="fill: #b4c4a9"/>
   </g>
   <g id="patch_15">
    <path d="M 364.617421 63.259336 
L 404.276926 63.259336 
L 404.276926 63.259336 
L 364.617421 63.259336 
z
" clip-path="url(#pd249b6ce80)" style="fill: #b4c4a9"/>
   </g>
   <g id="patch_16">
    <path d="M 430.716595 208.01304 
L 470.376099 208.01304 
L 470.376099 208.01304 
L 430.716595 208.01304 
z
" clip-path="url(#pd249b6ce80)" style="fill: #b4c4a9"/>
   </g>
   <g id="patch_17">
    <path d="M 496.815769 22.810312 
L 536.475273 22.810312 
L 536.475273 22.810312 
L 496.815769 22.810312 
z
" clip-path="url(#pd249b6ce80)" style="fill: #b4c4a9"/>
   </g>
   <g id="patch_18">
    <path d="M 100.220727 243.040933 
L 139.880231 243.040933 
L 139.880231 22.810312 
L 100.220727 22.810312 
z
" clip-path="url(#pd249b6ce80)" style="fill: #7e9a75"/>
   </g>
   <g id="patch_19">
    <path d="M 166.319901 91.295018 
L 205.979405 91.295018 
L 205.979405 22.810312 
L 166.319901 22.810312 
z
" clip-path="url(#pd249b6ce80)" style="fill: #7e9a75"/>
   </g>
   <g id="patch_20">
    <path d="M 232.419074 203.589486 
L 272.078579 203.589486 
L 272.078579 22.810312 
L 232.419074 22.810312 
z
" clip-path="url(#pd249b6ce80)" style="fill: #7e9a75"/>
   </g>
   <g id="patch_21">
    <path d="M 298.518248 94.290235 
L 338.177752 94.290235 
L 338.177752 22.810312 
L 298.518248 22.810312 
z
" clip-path="url(#pd249b6ce80)" style="fill: #7e9a75"/>
   </g>
   <g id="patch_22">
    <path d="M 364.617421 63.259336 
L 404.276926 63.259336 
L 404.276926 22.810312 
L 364.617421 22.810312 
z
" clip-path="url(#pd249b6ce80)" style="fill: #7e9a75"/>
   </g>
   <g id="patch_23">
    <path d="M 430.716595 208.01304 
L 470.376099 208.01304 
L 470.376099 22.810312 
L 430.716595 22.810312 
z
" clip-path="url(#pd249b6ce80)" style="fill: #7e9a75"/>
   </g>
   <g id="patch_24">
    <path d="M 496.815769 22.810312 
L 536.475273 22.810312 
L 536.475273 22.810312 
L 496.815769 22.810312 
z
" clip-path="url(#pd249b6ce80)" style="fill: #7e9a75"/>
   </g>
   <g id="text_15">
    <text style="font-weight: 700; font-size: 13.5px; font-family: 'Times New Roman', 'SimSun'; text-anchor: middle; fill: #2b2b2b" x="318.348" y="16.810312" transform="rotate(-0 318.348 16.810312)">各历史阶段时空格的观测层构成（按时间证据加权）</text>
   </g>
   <g id="legend_1">
    <g id="patch_25">
     <path d="M 153.841875 334.295752 
L 170.641875 334.295752 
L 170.641875 328.415752 
L 153.841875 328.415752 
z
" style="fill: #e4e9dc"/>
    </g>
    <g id="text_16">
     <text style="font-size: 8.4px; font-family: 'Times New Roman', 'SimSun'; text-anchor: start" x="177.361875" y="334.295752" transform="rotate(-0 177.361875 334.295752)">asserted_event_spacetime</text>
    </g>
    <g id="patch_26">
     <path d="M 281.394562 334.295752 
L 298.194562 334.295752 
L 298.194562 328.415752 
L 281.394562 328.415752 
z
" style="fill: #b4c4a9"/>
    </g>
    <g id="text_17">
     <text style="font-size: 8.4px; font-family: 'Times New Roman', 'SimSun'; text-anchor: start" x="304.914562" y="334.295752" transform="rotate(-0 304.914562 334.295752)">relation_context</text>
    </g>
    <g id="patch_27">
     <path d="M 376.294875 334.295752 
L 393.094875 334.295752 
L 393.094875 328.415752 
L 376.294875 328.415752 
z
" style="fill: #7e9a75"/>
    </g>
    <g id="text_18">
     <text style="font-size: 8.4px; font-family: 'Times New Roman', 'SimSun'; text-anchor: start" x="399.814875" y="334.295752" transform="rotate(-0 399.814875 334.295752)">trusted_event_spacetime</text>
    </g>
   </g>
  </g>
  <g id="text_19">
   <text style="font-size: 8px; font-family: 'Times New Roman', 'SimSun'; text-anchor: start; fill: #6b6b6b" x="7.2" y="322.791112" transform="rotate(-0 7.2 322.791112)">数据源：T16_历史阶段×省域时空格</text>
  </g>
 </g>
 <defs>
  <clipPath id="pd249b6ce80">
   <rect x="78.408" y="22.810312" width="479.88" height="266.112"/>
  </clipPath>
 </defs>
</svg>
